HIERARCHY
ROOT Hips
{
	OFFSET -0.001795 -0.223333 0.028219
	CHANNELS 6 Xposition Yposition Zposition Zrotation Yrotation Xrotation 
	JOINT LeftUpLeg
	{
		OFFSET 0.069520 -0.091406 -0.006815
		CHANNELS 3 Zrotation Yrotation Xrotation
		JOINT LeftLeg
		{
			OFFSET 0.034277 -0.375199 -0.004496
			CHANNELS 3 Zrotation Yrotation Xrotation
			JOINT LeftFoot
			{
				OFFSET -0.013596 -0.397961 -0.043693
				CHANNELS 3 Zrotation Yrotation Xrotation
				JOINT LeftToe
				{
					OFFSET 0.026358 -0.055791 0.119288
					CHANNELS 3 Zrotation Yrotation Xrotation
					End Site
					{
						OFFSET 0.000000 0.000000 0.000000
					}
				}
			}
		}
	}
	JOINT RightUpLeg
	{
		OFFSET -0.067670 -0.090522 -0.004320
		CHANNELS 3 Zrotation Yrotation Xrotation
		JOINT RightLeg
		{
			OFFSET -0.038290 -0.382569 -0.008850
			CHANNELS 3 Zrotation Yrotation Xrotation
			JOINT RightFoot
			{
				OFFSET 0.015774 -0.398415 -0.042312
				CHANNELS 3 Zrotation Yrotation Xrotation
				JOINT RightToe
				{
					OFFSET -0.025372 -0.048144 0.123348
					CHANNELS 3 Zrotation Yrotation Xrotation
					End Site
					{
						OFFSET 0.000000 0.000000 0.000000
					}
				}
			}
		}
	}
	JOINT Spine
	{
		OFFSET -0.002533 0.108963 -0.026696
		CHANNELS 3 Zrotation Yrotation Xrotation
		JOINT Spine1
		{
			OFFSET 0.005487 0.135180 0.001092
			CHANNELS 3 Zrotation Yrotation Xrotation
			JOINT Spine2
			{
				OFFSET 0.001457 0.052922 0.025425
				CHANNELS 3 Zrotation Yrotation Xrotation
				JOINT Neck
				{
					OFFSET -0.002778 0.213870 -0.042857
					CHANNELS 3 Zrotation Yrotation Xrotation
					JOINT Head
					{
						OFFSET 0.005152 0.064970 0.051349
						CHANNELS 3 Zrotation Yrotation Xrotation
						End Site
						{
							OFFSET 0.000000 0.000000 0.000000
						}
					}
				}
				JOINT LeftShoulder
				{
					OFFSET 0.078845 0.121749 -0.034090
					CHANNELS 3 Zrotation Yrotation Xrotation
					JOINT LeftArm
					{
						OFFSET 0.090977 0.030469 -0.008868
						CHANNELS 3 Zrotation Yrotation Xrotation
						JOINT LeftForeArm
						{
							OFFSET 0.259612 -0.012772 -0.027456
							CHANNELS 3 Zrotation Yrotation Xrotation
							JOINT LeftHand
							{
								OFFSET 0.249234 0.008986 -0.001171
								CHANNELS 3 Zrotation Yrotation Xrotation
								End Site
								{
									OFFSET 0.000000 0.000000 0.000000
								}
							}
						}
					}
				}
				JOINT RightShoulder
				{
					OFFSET -0.081759 0.118833 -0.038615
					CHANNELS 3 Zrotation Yrotation Xrotation
					JOINT RightArm
					{
						OFFSET -0.096012 0.032551 -0.009143
						CHANNELS 3 Zrotation Yrotation Xrotation
						JOINT RightForeArm
						{
							OFFSET -0.253742 -0.013329 -0.021401
							CHANNELS 3 Zrotation Yrotation Xrotation
							JOINT RightHand
							{
								OFFSET -0.255298 0.007772 -0.005559
								CHANNELS 3 Zrotation Yrotation Xrotation
								End Site
								{
									OFFSET 0.000000 0.000000 0.000000
								}
							}
						}
					}
				}
			}
		}
	}
}
MOTION
Frames: 9
Frame Time: 0.050000
0.223343 1.021252 1.615426 -1.207745 3.166412 -6.080354 0.652337 0.000426 0.069135 4.925475 -4.267740 37.317914 -0.668067 3.352712 10.536127 0.000000 0.000000 0.000000 7.104961 2.244260 -14.233263 -1.925544 1.148258 18.681560 3.039662 -2.260190 21.688146 0.000000 0.000000 0.000000 -5.889519 -0.014412 7.871744 8.016552 -4.233528 1.767015 1.851029 -10.734551 -5.029998 -9.699328 6.880932 -6.607130 0.000000 0.000000 0.000000 -18.964903 -14.831471 8.540678 -17.641645 -33.332629 1.575335 54.054646 -53.681269 -24.495957 0.000000 0.000000 0.000000 12.450207 12.757180 2.762766 38.002548 -2.373983 -3.084005 -4.807109 72.939958 -4.402288 0.000000 0.000000 0.000000 
0.220603 0.931855 1.715184 -1.651740 2.027778 -9.438480 2.434840 -0.569176 -8.184127 3.516095 -5.102678 51.847079 1.379876 4.111851 2.987552 0.000000 0.000000 0.000000 9.425338 2.117348 -11.573953 -1.498139 1.649412 32.092288 -0.998258 -3.223937 1.680063 0.000000 0.000000 0.000000 -5.127699 -0.101365 11.194419 7.215056 -4.289721 5.404924 2.094005 -7.119563 -6.698704 -8.094407 5.570850 -9.927133 0.000000 0.000000 0.000000 -21.438984 -11.915884 6.174175 -25.467879 -28.290746 2.373346 57.226601 -64.239931 -33.305802 0.000000 0.000000 0.000000 15.887202 8.325008 0.842854 38.421641 -4.891579 -3.839251 8.390301 70.118407 5.869504 0.000000 0.000000 0.000000 
0.220225 0.873994 1.802471 -2.340866 1.326030 -12.113418 2.117183 -1.138202 -15.363919 4.346428 -6.788639 61.577426 1.537798 3.850166 1.542833 0.000000 0.000000 0.000000 10.991902 2.242480 -11.073195 -1.044909 2.081953 45.977611 -3.253779 -4.615505 -9.824728 0.000000 0.000000 0.000000 -3.801829 -0.305226 17.675345 5.114595 -3.036862 4.592964 3.403439 -6.105414 -5.203108 -5.867338 4.115301 -13.001040 0.000000 0.000000 0.000000 -26.871822 -8.588239 4.385160 -28.165339 -17.272207 0.217470 50.605544 -74.053433 -34.673794 0.000000 0.000000 0.000000 23.054892 8.746393 0.363975 37.315738 -6.755740 -4.196037 7.388609 59.495704 4.575279 0.000000 0.000000 0.000000 
0.222620 0.873593 1.887248 -2.203028 -0.256879 -12.365855 2.578330 -1.581390 -22.800602 2.980076 -4.793468 58.843856 0.883551 3.616853 4.432780 0.000000 0.000000 0.000000 12.199058 1.161149 -5.264389 -3.178362 3.658849 45.927028 -2.845088 -3.566736 -8.833762 0.000000 0.000000 0.000000 -3.611111 -0.303080 19.593941 1.573642 -1.000246 4.452480 6.275147 -4.169757 -3.465519 -4.384280 3.253262 -13.308573 0.000000 0.000000 0.000000 -30.689436 -4.946271 2.030113 -32.735389 -6.171444 -2.510800 -2.372165 -75.503228 6.043978 0.000000 0.000000 0.000000 23.787392 6.980995 -0.524921 40.427060 -10.411879 -6.019493 13.598644 49.006530 6.549477 0.000000 0.000000 0.000000 
0.227366 0.905973 1.976474 -1.999844 -1.180562 -9.473396 2.158848 -1.776577 -24.799641 3.662807 -2.959909 36.533832 -2.239065 0.554244 11.156515 0.000000 0.000000 0.000000 10.776224 0.022535 -0.231991 -2.919570 3.342220 40.743711 -0.834216 -2.624742 1.073093 0.000000 0.000000 0.000000 -4.166078 -0.146601 18.664725 1.551782 -0.873762 2.227529 6.277326 -1.845981 -1.338204 -0.400093 0.990158 -14.812055 0.000000 0.000000 0.000000 -30.492179 0.756206 -2.419539 -35.676853 6.765128 -6.034970 -38.411406 -65.880906 28.976096 0.000000 0.000000 0.000000 23.239074 2.253535 -2.407510 41.304768 -12.385545 -7.187544 19.825785 38.430794 7.351713 0.000000 0.000000 0.000000 
0.233590 0.941861 2.069009 -1.494448 -4.624198 -7.024457 2.495684 -1.429065 -23.559800 2.655800 -0.996842 13.436004 -6.440654 -0.151641 27.206343 0.000000 0.000000 0.000000 7.785407 -0.529077 2.703380 -3.394765 3.987527 38.316563 4.288084 1.712085 14.101940 0.000000 0.000000 0.000000 -5.408249 0.127388 15.076521 1.151357 -0.672037 4.245763 6.927807 -0.739347 0.368691 -2.102799 1.928300 -14.029152 0.000000 0.000000 0.000000 -27.820555 6.341760 -5.452951 -38.087086 17.287457 -9.447865 -45.990880 -53.667724 27.431424 0.000000 0.000000 0.000000 21.530418 1.161176 -2.859178 42.825024 -16.258755 -8.912731 23.219019 31.348561 6.745645 0.000000 0.000000 0.000000 
0.239521 0.949010 2.160877 -2.037776 -5.034523 -6.327931 1.485579 -1.495337 -21.343527 4.070470 -1.093113 9.549636 -7.707736 -1.389707 28.452850 0.000000 0.000000 0.000000 6.931980 -0.191260 0.633564 -1.825895 4.315573 46.994099 5.413102 0.275969 21.462400 0.000000 0.000000 0.000000 -5.699643 0.188306 15.395649 -0.037462 -0.023531 4.521031 9.422126 -1.365320 -0.208270 -3.037687 2.371182 -12.486792 0.000000 0.000000 0.000000 -27.027667 8.438860 -6.234409 -37.903124 26.510078 -11.886722 -46.292102 -42.399359 21.511003 0.000000 0.000000 0.000000 20.153585 -1.118559 -4.228559 41.233063 -21.606263 -10.195414 23.981813 27.537860 5.886253 0.000000 0.000000 0.000000 
0.244199 0.925238 2.246677 -2.375885 -4.949144 -8.266013 0.813374 -1.577416 -20.490818 4.162602 -1.753354 20.484219 -4.980614 -1.685473 17.811685 0.000000 0.000000 0.000000 4.838322 0.504629 -3.879790 1.664748 3.286019 58.198401 5.315643 -0.762063 24.063573 0.000000 0.000000 0.000000 -6.792660 0.388108 18.416228 2.150259 -1.196544 3.490372 7.908341 -1.415670 1.190448 -2.955166 2.377040 -13.271876 0.000000 0.000000 0.000000 -25.782071 7.086435 -5.325752 -39.122438 30.587057 -13.581329 -40.998879 -36.713890 16.298476 0.000000 0.000000 0.000000 22.551316 -1.529033 -4.742642 39.003264 -23.441056 -10.212385 19.060586 24.873892 4.354787 0.000000 0.000000 0.000000 
0.247495 0.896615 2.317033 -2.538608 -5.397705 -9.315398 0.590634 -1.714900 -22.025541 3.598933 -2.130648 33.206994 -1.586461 -0.740931 5.860946 0.000000 0.000000 0.000000 4.395741 1.306454 -9.489798 2.585070 3.066349 61.256935 -0.280226 -4.247227 7.629770 0.000000 0.000000 0.000000 -6.555719 0.477981 21.913395 2.151064 -1.190980 3.090870 7.710410 -2.403578 1.356706 -2.988998 2.333858 -16.177729 0.000000 0.000000 0.000000 -28.736844 4.962750 -3.959196 -38.843464 27.169542 -12.709849 -28.976280 -31.034474 9.870511 0.000000 0.000000 0.000000 25.306656 -0.071589 -4.802556 37.519322 -23.900796 -9.798391 14.987757 21.406154 2.982283 0.000000 0.000000 0.000000 
